<?xml version="1.0" encoding="UTF-8"?>
<svg id="a" xmlns="http://www.w3.org/2000/svg" viewBox="0 0 150 150">
  <defs>
    <style>
      .cls-1 {
        fill: #a14474;
      }

      .cls-2 {
        fill: #141446;
      }

      .cls-3 {
        fill: #ff6492;
      }

      .cls-4 {
        fill: none;
      }

      .cls-5 {
        fill: #7a77ff;
      }
    </style>
  </defs>
  <g id="b">
    <g id="c">
      <path id="d" class="cls-4" d="M0,0H150V150H0V0Z"/>
    </g>
  </g>
  <path class="cls-2" d="M134.69,65.18l-17.68,10.31-41.26-23.89-25.48,14.7-15.77-10.66,41.26-27.8s58.94,37.33,58.94,37.33Z"/>
  <path class="cls-1" d="M54,66.44l-21.33-12,1.83,21.05s19.51-9.05,19.51-9.05Z"/>
  <path class="cls-2" d="M16.81,109.31l58.94-37.11,58.94,37.11-58.94,34.19L16.81,109.31Z"/>
  <path class="cls-3" d="M134.69,85.84l-58.94-34.61-4.26,21.82,63.19,36.26v-23.47Z"/>
  <path class="cls-3" d="M134.69,41.67L75.76,7.49l-4.27,21.19,63.19,36.5v-23.51h0Z"/>
  <path class="cls-5" d="M34.49,75.49v-19.85l41.26-24.5V7.49L16.81,41.67V109.31l58.94-33.82v-24.26l-41.26,24.26Z"/>
</svg>