<!DOCTYPE svg PUBLIC "-//W3C//DTD SVG 1.1//EN" "http://www.w3.org/Graphics/SVG/1.1/DTD/svg11.dtd">
<!-- Uploaded to: SVG Repo, www.svgrepo.com, Transformed by: SVG Repo Mixer Tools -->
<svg fill="#ffffff" version="1.1" id="Layer_1" xmlns="http://www.w3.org/2000/svg" xmlns:xlink="http://www.w3.org/1999/xlink" width="800px" height="800px" viewBox="-117 -117 494.00 494.00" xml:space="preserve" stroke="#ffffff" stroke-width="0.0026000000000000003" transform="rotate(0)">
<g id="SVGRepo_bgCarrier" stroke-width="0" transform="translate(7.800000000000011,7.800000000000011), scale(0.94)">
<path transform="translate(-117, -117), scale(15.4375)" d="M16,26.783951411644615C19.81472187921725,26.653686325915018,24.22438966674639,27.440473645066245,26.637942400204885,24.483475976627204C29.067034058358246,21.50744057868021,27.53257540058853,17.305364799370246,26.817264031755712,13.531030073996476C26.04591713199689,9.46102431717541,25.97432705935959,4.768910245174055,22.480002073180355,2.544137045207899C18.640719122354614,0.09973537968806578,13.462583939424219,0.2642176218616963,9.501966837483605,2.506695102398096C5.789554107651391,4.608640766629646,4.613003044379309,9.025148951006187,3.6806851003403303,13.188196765195332C2.755142873959159,17.320989196266247,1.5665023956034525,22.104095290894975,4.410263372663735,25.24250654445637C7.163464256631889,28.280974512496734,11.902095555073881,26.92388661288123,16,26.783951411644615" fill="#006094" strokewidth="0"/>
</g>
<g id="SVGRepo_tracerCarrier" stroke-linecap="round" stroke-linejoin="round" stroke="#CCCCCC" stroke-width="3.12"/>
<g id="SVGRepo_iconCarrier"> <path d="M134.3,109.2L202,83.8V146c0,13.4-32.2,24.3-72,24.3S58,159.4,58,146V83.8l67.9,25.4l4.2,1.6L134.3,109.2z M130.1,98L258,50 L130.1,2L2,50l20,7.5v81.8c-4.7,2.2-8,7.1-8,12.7v34h28v-34c0-5.7-3.3-10.6-8.1-12.8V61.9L130.1,98z"/> </g>
</svg>