<!DOCTYPE svg PUBLIC "-//W3C//DTD SVG 1.1//EN" "http://www.w3.org/Graphics/SVG/1.1/DTD/svg11.dtd">
<!-- Uploaded to: SVG Repo, www.svgrepo.com, Transformed by: SVG Repo Mixer Tools -->
<svg width="800px" height="800px" viewBox="-256 -256 1024.00 1024.00" version="1.1" xmlns="http://www.w3.org/2000/svg" xmlns:xlink="http://www.w3.org/1999/xlink" fill="#ffffff" stroke="#ffffff">
<g id="SVGRepo_bgCarrier" stroke-width="0" transform="translate(0,0), scale(1)">
<path transform="translate(-256, -256), scale(32)" d="M16,26.057304706838394C18.956081097690202,26.325700175520275,22.094527825445564,27.826735310966722,24.63311487250536,26.288545664586763C27.29792054840987,24.673877179990853,28.685326030187486,21.37811051660574,28.85688466763399,18.267015654760858C29.016753239890186,15.36791187823539,27.045421327553086,12.973379825371135,25.503020058002548,10.51342881139782C24.033738814484007,8.170095752641554,22.838503334011612,5.290262137921809,20.200070355984792,4.4604015368110534C17.599523457542002,3.642457162126806,15.063946700957473,5.45837545892115,12.516353847964696,6.428760859913016C10.022352099003136,7.378733256168337,7.3521523435943426,7.974838190115809,5.627187884082847,10.011254132621813C3.6278558766083773,12.371576139219309,1.7675107145214266,15.369373065565789,2.3737401533895053,18.402677257101814C2.976085068412402,21.416545008065587,5.909585746510215,23.326561026789946,8.589199001207135,24.83184871431215C10.840025889902332,26.09626326979248,13.428916245737927,25.823864822599518,16,26.057304706838394" fill="#006094" strokewidth="0"/>
</g>
<g id="SVGRepo_tracerCarrier" stroke-linecap="round" stroke-linejoin="round"/>
<g id="SVGRepo_iconCarrier"> <title>work-case-filled</title> <g id="Page-1" stroke="none" stroke-width="1" fill="none" fill-rule="evenodd"> <g id="work-case" fill="#ffffff" transform="translate(42.666667, 64.000000)"> <path d="M1.20792265e-13,197.76 C54.5835501,218.995667 112.186031,231.452204 170.666667,234.666667 L170.666667,277.333333 L256,277.333333 L256,234.666667 C314.339546,231.013 371.833936,218.86731 426.666667,198.613333 L426.666667,362.666667 L1.20792265e-13,362.666667 L1.20792265e-13,197.76 Z M277.333333,-1.42108547e-14 L298.666667,21.3333333 L298.666667,64 L426.666667,64 L426.666667,175.146667 C361.254942,199.569074 292.110481,212.488551 222.293333,213.333333 L222.293333,213.333333 L206.933333,213.333333 C136.179047,212.568604 66.119345,199.278929 7.10542736e-15,174.08 L7.10542736e-15,174.08 L7.10542736e-15,64 L128,64 L128,21.3333333 L149.333333,-1.42108547e-14 L277.333333,-1.42108547e-14 Z M256,42.6666667 L170.666667,42.6666667 L170.666667,64 L256,64 L256,42.6666667 Z" id="Combined-Shape-Copy"> </path> </g> </g> </g>
</svg>